# Rhino

g object_1
v 0 0 0
v 0 0 5.992233276
v 0 6.235161781 0
v 0 6.235161781 5.992233276
v 6.376870155 0 0
v 6.376870155 0 5.992233276
v 6.376870155 6.235161781 0
v 6.376870155 6.235161781 5.992233276
vt 0 0
vt 0 0.6622802615
vt 0.2528089881 0
vt 0.2528089881 0.6622802615
vt 0.2528089881 0
vt 0.2528089881 0.6622802615
vt 0.5 0
vt 0.5 0.6622802615
vt 0.5 0
vt 0.5 0.6622802615
vt 0.7528089881 0
vt 0.7528089881 0.6622802615
vt 0.7528089881 0
vt 0.7528089881 0.6622802615
vt 1 0
vt 1 0.6622802615
vt 0 1
vt 0.2528089881 1
vt 0.2528089881 0.6622809172
vt 0 0.6622809172
vt 0.7471910119 0.6622809172
vt 1 0.6622809172
vt 1 1
vt 0.7471910119 1
vn 0 -1 0
vn 0 -1 0
vn 0 -1 0
vn 0 -1 0
vn 1 0 0
vn 1 0 0
vn 1 0 0
vn 1 0 0
vn 0 1 0
vn 0 1 0
vn 0 1 0
vn 0 1 0
vn -1 0 0
vn -1 0 0
vn -1 0 0
vn -1 0 0
vn 0 0 -1
vn 0 0 -1
vn 0 0 -1
vn 0 0 -1
vn 0 0 1
vn 0 0 1
vn 0 0 1
vn 0 0 1
f 1/1/1 5/3/3 6/4/4 2/2/2
f 5/5/5 7/7/7 8/8/8 6/6/6
f 7/9/9 3/11/11 4/12/12 8/10/10
f 3/13/13 1/15/15 2/16/16 4/14/14
f 5/18/18 1/17/17 3/20/20
f 3/20/20 7/19/19 5/18/18
f 6/22/22 4/24/24 2/21/21
f 4/24/24 6/22/22 8/23/23
