# Rhino

g object_1
v -7.470047474 0 0
v -3.735023737 0 5.587352753
v -2.308371782 -7.104437351 0
v -2.308371782 7.104437351 0
v -1.154185891 -3.552218676 5.587352753
v -1.154185891 3.552218676 5.587352753
v 0 0 11.17470551
v 3.02169776 -2.195391893 5.587352753
v 3.02169776 2.195391893 5.587352753
v 6.043395519 -4.390783787 0
v 6.043395519 4.390783787 0
vt 0.9985351562 0.4544692934
vt 0.9985351562 0.7113156319
vt 0.8134791851 0.6471040249
vt 0.6284231544 0.5828924775
vt 0.8134791851 0.5186808705
vt 0 0.3952458799
vt 0.2553814948 0.3952458799
vt 0.1276907474 0.7668226957
vt 0.06384537369 0.5810343027
vt 0.1915361285 0.5810343027
vt 0.9985351562 0
vt 0.9985351562 0.2568463385
vt 0.6284231544 0.1284231693
vt 0.8134791851 0.06421158463
vt 0.8134791851 0.1926347613
vt 0.6269583106 0.6520922184
vt 0.6269583106 0.907473743
vt 0.2568463385 0.7797829509
vt 0.4419023395 0.7159376144
vt 0.4419023395 0.8436283469
vt 0.6269583106 0.3952458799
vt 0.6269583106 0.6506273746
vt 0.4419023395 0.5867820382
vt 0.2568463385 0.5229366422
vt 0.4419023395 0.4590912461
vt 0.207793057 0.3937810361
vt 0 0.2433700711
vt 0.07936988026 0
vt 0.3362162411 0
vt 0.4155861139 0.2433700711
vn -0.7116172314 -0.5170201659 0.4757006466
vn -0.7116172314 -0.5170201659 0.4757006466
vn -0.7116172314 -0.5170201659 0.4757006466
vn -0.7116172314 -0.5170201659 0.4757006466
vn -0.7116172314 -0.5170201659 0.4757006466
vn 0.2718136013 -0.8365561962 0.4757006466
vn 0.2718136013 -0.8365561962 0.4757006466
vn 0.2718136013 -0.8365561962 0.4757006466
vn 0.2718136013 -0.8365561962 0.4757006466
vn 0.2718136013 -0.8365561962 0.4757006466
vn 0.8796072602 0 0.4757006466
vn 0.8796072602 0 0.4757006466
vn 0.8796072602 -8.896454543e-17 0.4757006466
vn 0.8796072602 -8.896454543e-17 0.4757006466
vn 0.8796072602 -8.896454543e-17 0.4757006466
vn 0.2718136013 0.8365561962 0.4757006466
vn 0.2718136013 0.8365561962 0.4757006466
vn 0.2718136013 0.8365561962 0.4757006466
vn 0.2718136013 0.8365561962 0.4757006466
vn 0.2718136013 0.8365561962 0.4757006466
vn -0.7116172314 0.5170201659 0.4757006466
vn -0.7116172314 0.5170201659 0.4757006466
vn -0.7116172314 0.5170201659 0.4757006466
vn -0.7116172314 0.5170201659 0.4757006466
vn -0.7116172314 0.5170201659 0.4757006466
vn 0 0 -1
vn 0 0 -1
vn 0 0 -1
vn 0 0 -1
vn 0 0 -1
f 3/2/2 2/5/5 1/1/1
f 7/4/4 2/5/5 5/3/3
f 3/2/2 5/3/3 2/5/5
f 8/10/10 5/9/9 3/6/6
f 5/9/9 8/10/10 7/8/8
f 3/6/6 10/7/7 8/10/10
f 11/12/12 8/14/14 10/11/11
f 8/14/14 9/15/15 7/13/13
f 8/14/14 11/12/12 9/15/15
f 6/20/20 9/19/19 11/16/16
f 9/19/19 6/20/20 7/18/18
f 11/16/16 4/17/17 6/20/20
f 2/23/23 6/25/25 4/21/21
f 6/25/25 2/23/23 7/24/24
f 4/21/21 1/22/22 2/23/23
f 3/27/27 11/29/29 10/28/28
f 3/27/27 1/26/26 4/30/30
f 11/29/29 3/27/27 4/30/30
